<svg width="539" height="199" viewBox="0 0 539 199" version="1.1" xmlns="http://www.w3.org/2000/svg" xmlns:xlink="http://www.w3.org/1999/xlink">
<title>Group</title>
<desc>Created using Figma</desc>
<g id="Canvas" transform="translate(3622 -5581)">
<g id="Group">
<g id="Art 4 Sale">
<use xlink:href="#path0_fill" transform="matrix(0.975614 0.219496 -0.219496 0.975614 -3657.4 5518)"/>
</g>
<g id="COMING SOON!">
<use xlink:href="#path1_fill" transform="matrix(0.974113 0.226061 -0.226061 0.974113 -3424.66 5670.45)" fill="#FFFFFF"/>
</g>
</g>
</g>
<defs>
<path id="path0_fill" d="M 100.901 101.749L 125.242 101.749L 113.267 64.0006L 100.901 101.749ZM 102.138 42.0677L 124.787 42.0677L 158.76 138L 137.022 138L 130.839 118.28L 95.4994 118.28L 88.8609 138L 67.9042 138L 102.138 42.0677ZM 197.365 65.3674C 197.712 65.3674 197.994 65.3891 198.211 65.4324C 198.471 65.4324 199.013 65.4541 199.838 65.4975L 199.838 84.5018C 198.666 84.3716 197.625 84.2848 196.714 84.2414C 195.803 84.198 195.065 84.1764 194.501 84.1764C 187.038 84.1764 182.027 86.6061 179.467 91.4657C 178.035 94.1991 177.319 98.4078 177.319 104.092L 177.319 138L 158.64 138L 158.64 67.0595L 176.343 67.0595L 176.343 79.4253C 179.207 74.6959 181.701 71.4635 183.827 69.7279C 187.299 66.8209 191.811 65.3674 197.365 65.3674ZM 192.819 80.9222L 192.819 67.7104L 202.712 67.7104L 202.712 47.9251L 221.065 47.9251L 221.065 67.7104L 232.585 67.7104L 232.585 80.9222L 221.065 80.9222L 221.065 118.41C 221.065 121.317 221.434 123.139 222.172 123.877C 222.909 124.571 225.166 124.918 228.94 124.918C 229.504 124.918 230.09 124.918 230.698 124.918C 231.348 124.875 231.978 124.832 232.585 124.788L 232.585 138.651L 223.799 138.976C 215.034 139.28 209.047 137.761 205.836 134.42C 203.753 132.294 202.712 129.019 202.712 124.593L 202.712 80.9222L 192.819 80.9222ZM 342.232 111.6L 328.355 111.6L 328.355 138L 304.748 138L 304.748 111.6L 256.179 111.6L 256.179 90.5314L 301.279 16.0709L 328.355 16.0709L 328.355 92.7314L 342.232 92.7314L 342.232 111.6ZM 304.748 92.7314L 304.748 39.7629L 274.033 92.7314L 304.748 92.7314ZM 451.208 36.5053L 446.642 66.8938L 439.457 66.8938C 438.958 63.3011 438.11 59.7582 436.912 56.2653C 435.764 52.7724 433.619 49.5289 430.475 46.535C 427.331 43.541 422.965 42.0441 417.377 42.0441C 412.836 42.0441 409.093 43.2666 406.149 45.7116C 403.205 48.1567 401.733 51.475 401.733 55.6665C 401.733 58.4609 402.407 61.1055 403.754 63.6005C 405.151 66.0455 407.047 68.4906 409.443 70.9356C 411.838 73.3807 414.682 76.0004 417.975 78.7947C 424.263 84.1339 429.028 89.0989 432.271 93.6896C 435.515 98.2304 437.137 103.495 437.137 109.483C 437.137 114.522 435.814 119.388 433.17 124.078C 430.525 128.719 426.683 132.511 421.643 135.455C 416.603 138.399 410.79 139.871 404.203 139.871C 401.359 139.871 398.465 139.472 395.521 138.674C 392.627 137.925 389.857 136.753 387.213 135.156C 384.618 133.559 381.998 131.438 379.353 128.794C 378.206 129.941 376.609 132.761 374.563 137.252L 367.527 137.252L 372.318 101.848L 379.353 101.848C 379.553 107.487 380.451 112.302 382.048 116.294C 383.645 120.286 385.716 123.454 388.26 125.8C 390.805 128.145 393.5 129.841 396.344 130.889C 399.238 131.937 402.008 132.461 404.652 132.461C 407.596 132.461 410.216 131.788 412.511 130.44C 414.857 129.093 416.678 127.272 417.975 124.976C 419.323 122.631 419.996 120.086 419.996 117.342C 419.996 114.597 419.472 112.177 418.424 110.081C 417.377 107.986 415.83 105.865 413.784 103.719C 411.788 101.574 408.27 98.1306 403.23 93.3902C 396.843 87.4023 392.377 82.2877 389.832 78.0462C 387.337 73.8048 386.09 69.3638 386.09 64.7232C 386.09 59.4838 387.512 54.5438 390.356 49.9032C 393.25 45.2625 397.093 41.57 401.883 38.8256C 406.723 36.0811 411.838 34.7089 417.227 34.7089C 425.36 34.7089 432.77 37.9274 439.457 44.3644C 439.756 43.9153 440.18 43.3414 440.729 42.6428C 441.278 41.9443 441.827 41.1708 442.376 40.3225C 442.925 39.4244 443.574 38.1519 444.322 36.5053L 451.208 36.5053ZM 511.922 120.036C 510.475 122.98 508.854 125.675 507.057 128.12C 505.261 130.565 503.265 132.711 501.069 134.557C 498.874 136.403 496.653 137.8 494.408 138.748C 492.212 139.697 489.917 140.171 487.522 140.171C 482.282 140.171 478.914 138.599 477.417 135.455C 475.97 132.262 475.247 128.469 475.247 124.078C 471.255 128.819 467.313 132.686 463.42 135.68C 459.528 138.674 455.087 140.171 450.097 140.171C 447.153 140.171 444.708 139.372 442.762 137.775C 440.816 136.129 439.369 133.933 438.421 131.189C 437.523 128.444 437.074 125.5 437.074 122.357C 437.074 115.62 438.795 108.51 442.238 101.025C 445.681 93.5399 450.347 87.2526 456.235 82.1629C 462.173 77.0732 468.56 74.5284 475.396 74.5284C 478.54 74.5284 481.01 75.1521 482.806 76.3996C 484.603 77.6471 485.825 79.0442 486.474 80.5911C 487.172 82.138 487.771 83.8595 488.27 85.7557L 491.04 76.3996L 507.581 76.3996L 493.659 122.057C 492.661 125.351 492.162 127.347 492.162 128.045C 492.162 128.694 492.362 129.243 492.761 129.692C 493.21 130.141 493.709 130.365 494.258 130.365C 497.501 130.365 500.969 126.922 504.662 120.036L 511.922 120.036ZM 484.004 90.1717C 484.004 87.7267 483.53 85.6309 482.582 83.8844C 481.683 82.138 480.012 81.2647 477.567 81.2647C 473.824 81.2647 470.182 83.4353 466.639 87.7766C 463.146 92.0679 460.302 97.2823 458.106 103.42C 455.961 109.508 454.888 114.647 454.888 118.839C 454.888 124.877 456.784 127.895 460.576 127.895C 463.221 127.895 465.915 126.698 468.66 124.303C 471.454 121.858 474.024 118.614 476.369 114.572C 478.814 110.381 480.686 106.139 481.983 101.848C 483.33 97.5568 484.004 93.6647 484.004 90.1717ZM 552.577 34.7089L 526.38 120.56C 525.033 124.802 524.359 127.446 524.359 128.494C 524.359 129.343 524.559 130.016 524.958 130.515C 525.357 131.014 525.881 131.264 526.53 131.264C 527.827 131.264 529.624 130.091 531.919 127.746C 534.214 125.4 536.036 122.731 537.383 119.737L 544.419 119.737C 541.974 124.378 538.705 128.943 534.613 133.434C 530.522 137.925 525.407 140.171 519.269 140.171C 515.527 140.171 512.508 139.148 510.213 137.102C 507.967 135.006 506.845 132.486 506.845 129.542C 506.845 127.247 507.618 123.479 509.165 118.24L 528.326 55.8162C 529.574 51.7245 530.197 49.005 530.197 47.6577C 530.197 45.9112 529.474 44.7636 528.027 44.2147C 526.63 43.6658 523.985 43.3913 520.093 43.3913L 521.889 36.5053L 529.898 36.5053C 533.341 36.5053 536.485 36.3805 539.329 36.131C 542.173 35.8815 544.893 35.4075 547.487 34.7089L 552.577 34.7089ZM 607.378 86.9532C 607.378 88.9991 606.755 91.3693 605.507 94.0639C 604.26 96.7085 601.964 99.5278 598.621 102.522C 595.328 105.516 590.587 108.16 584.4 110.456C 578.262 112.751 570.528 114.323 561.197 115.171L 559.4 115.321C 559.001 117.317 558.802 119.163 558.802 120.86C 558.802 124.552 559.675 127.222 561.421 128.868C 563.218 130.465 565.812 131.264 569.205 131.264C 576.69 131.264 583.851 127.222 590.687 119.138L 598.621 119.138C 595.527 123.879 590.837 128.569 584.549 133.21C 578.262 137.85 570.802 140.171 562.17 140.171C 556.182 140.171 551.042 138.574 546.751 135.38C 542.509 132.137 540.389 127.396 540.389 121.159C 540.389 113.524 542.509 106.114 546.751 98.929C 550.992 91.6936 556.781 85.8305 564.116 81.3396C 571.451 76.7988 579.435 74.5284 588.067 74.5284C 595.003 74.5284 599.943 75.701 602.887 78.0462C 605.881 80.3915 607.378 83.3605 607.378 86.9532ZM 591.585 86.6538C 591.585 85.0072 591.011 83.5102 589.864 82.1629C 588.716 80.7657 587.144 80.0672 585.148 80.0672C 581.655 80.0672 578.437 81.2897 575.493 83.7347C 572.599 86.1299 570.154 88.9741 568.158 92.2675C 566.162 95.5608 564.515 98.9041 563.218 102.297C 561.97 105.69 561.197 107.786 560.897 108.584C 571.027 106.888 578.661 104.019 583.801 99.9769C 588.99 95.9351 591.585 91.4941 591.585 86.6538Z"/>
<path id="path1_fill" d="M 0.594727 4.45996C 0.594727 3.20345 0.931641 2.23503 1.60547 1.55469C 2.19141 0.96224 2.93685 0.666016 3.8418 0.666016C 5.05273 0.666016 5.93815 1.06315 6.49805 1.85742C 6.80729 2.30339 6.97331 2.75098 6.99609 3.2002L 5.49219 3.2002C 5.39453 2.85514 5.26921 2.59473 5.11621 2.41895C 4.84277 2.10645 4.4375 1.9502 3.90039 1.9502C 3.35352 1.9502 2.9222 2.17155 2.60645 2.61426C 2.29069 3.05371 2.13281 3.67708 2.13281 4.48438C 2.13281 5.29167 2.29883 5.89714 2.63086 6.30078C 2.96615 6.70117 3.39095 6.90137 3.90527 6.90137C 4.43262 6.90137 4.83464 6.72884 5.11133 6.38379C 5.26432 6.19824 5.39128 5.91992 5.49219 5.54883L 6.98145 5.54883C 6.85124 6.33333 6.51758 6.97135 5.98047 7.46289C 5.44661 7.95443 4.76139 8.2002 3.9248 8.2002C 2.88965 8.2002 2.07585 7.86816 1.4834 7.2041C 0.890951 6.53678 0.594727 5.62207 0.594727 4.45996ZM 11.3174 6.92578C 11.9131 6.92578 12.3851 6.70605 12.7334 6.2666C 13.085 5.82715 13.2607 5.20215 13.2607 4.3916C 13.2607 3.58431 13.085 2.96094 12.7334 2.52148C 12.3851 2.07878 11.9131 1.85742 11.3174 1.85742C 10.7217 1.85742 10.2464 2.07715 9.8916 2.5166C 9.53678 2.95605 9.35938 3.58105 9.35938 4.3916C 9.35938 5.20215 9.53678 5.82715 9.8916 6.2666C 10.2464 6.70605 10.7217 6.92578 11.3174 6.92578ZM 14.7646 4.3916C 14.7646 5.68392 14.4017 6.6735 13.6758 7.36035C 13.1322 7.92025 12.346 8.2002 11.3174 8.2002C 10.2887 8.2002 9.5026 7.92025 8.95898 7.36035C 8.22982 6.6735 7.86523 5.68392 7.86523 4.3916C 7.86523 3.07324 8.22982 2.08366 8.95898 1.42285C 9.5026 0.862956 10.2887 0.583008 11.3174 0.583008C 12.346 0.583008 13.1322 0.862956 13.6758 1.42285C 14.4017 2.08366 14.7646 3.07324 14.7646 4.3916ZM 20.6875 0.802734L 22.8506 0.802734L 22.8506 8L 21.4492 8L 21.4492 3.13184C 21.4492 2.99186 21.4508 2.79655 21.4541 2.5459C 21.4574 2.29199 21.459 2.09668 21.459 1.95996L 20.0967 8L 18.6367 8L 17.2842 1.95996C 17.2842 2.09668 17.2858 2.29199 17.2891 2.5459C 17.2923 2.79655 17.2939 2.99186 17.2939 3.13184L 17.2939 8L 15.8926 8L 15.8926 0.802734L 18.0801 0.802734L 19.3887 6.46191L 20.6875 0.802734ZM 25.624 8L 24.1299 8L 24.1299 0.802734L 25.624 0.802734L 25.624 8ZM 27.0059 0.802734L 28.583 0.802734L 31.4492 5.82715L 31.4492 0.802734L 32.8506 0.802734L 32.8506 8L 31.3467 8L 28.4072 2.8877L 28.4072 8L 27.0059 8L 27.0059 0.802734ZM 39.0957 3.04883C 38.9818 2.55729 38.7035 2.21387 38.2607 2.01855C 38.0133 1.91113 37.7383 1.85742 37.4355 1.85742C 36.8561 1.85742 36.3792 2.07715 36.0049 2.5166C 35.6338 2.9528 35.4482 3.61035 35.4482 4.48926C 35.4482 5.37467 35.6501 6.0013 36.0537 6.36914C 36.4574 6.73698 36.9163 6.9209 37.4307 6.9209C 37.9352 6.9209 38.3486 6.77604 38.6709 6.48633C 38.9932 6.19336 39.1917 5.81087 39.2666 5.33887L 37.6016 5.33887L 37.6016 4.1377L 40.5996 4.1377L 40.5996 8L 39.6035 8L 39.4521 7.10156C 39.1624 7.44336 38.902 7.68424 38.6709 7.82422C 38.2738 8.06836 37.7855 8.19043 37.2061 8.19043C 36.2523 8.19043 35.471 7.86003 34.8623 7.19922C 34.2275 6.53516 33.9102 5.62695 33.9102 4.47461C 33.9102 3.30924 34.2308 2.375 34.8721 1.67188C 35.5133 0.96875 36.3613 0.617188 37.416 0.617188C 38.3307 0.617188 39.0648 0.849935 39.6182 1.31543C 40.1748 1.77767 40.4938 2.35547 40.5752 3.04883L 39.0957 3.04883ZM 45.9121 5.77832C 45.9577 6.1071 46.0472 6.35286 46.1807 6.51562C 46.4248 6.81185 46.8431 6.95996 47.4355 6.95996C 47.7904 6.95996 48.0785 6.9209 48.2998 6.84277C 48.7197 6.69303 48.9297 6.41471 48.9297 6.00781C 48.9297 5.77018 48.8255 5.58626 48.6172 5.45605C 48.4089 5.3291 48.0817 5.2168 47.6357 5.11914L 46.874 4.94824C 46.1253 4.77897 45.6077 4.59505 45.3213 4.39648C 44.8363 4.06445 44.5938 3.54525 44.5938 2.83887C 44.5938 2.19434 44.8281 1.65885 45.2969 1.23242C 45.7656 0.80599 46.4541 0.592773 47.3623 0.592773C 48.1208 0.592773 48.7669 0.794596 49.3008 1.19824C 49.8379 1.59863 50.1195 2.18132 50.1455 2.94629L 48.7002 2.94629C 48.6742 2.51335 48.4854 2.20573 48.1338 2.02344C 47.8994 1.90299 47.6081 1.84277 47.2598 1.84277C 46.8724 1.84277 46.5632 1.9209 46.332 2.07715C 46.1009 2.2334 45.9854 2.4515 45.9854 2.73145C 45.9854 2.98861 46.0993 3.18066 46.3271 3.30762C 46.4736 3.39225 46.7861 3.49154 47.2646 3.60547L 48.5049 3.90332C 49.0485 4.03353 49.4587 4.20768 49.7354 4.42578C 50.165 4.76432 50.3799 5.25423 50.3799 5.89551C 50.3799 6.55306 50.1276 7.09993 49.623 7.53613C 49.1217 7.96908 48.4121 8.18555 47.4941 8.18555C 46.5566 8.18555 45.8193 7.97233 45.2822 7.5459C 44.7451 7.11621 44.4766 6.52702 44.4766 5.77832L 45.9121 5.77832ZM 54.6768 6.92578C 55.2725 6.92578 55.7445 6.70605 56.0928 6.2666C 56.4443 5.82715 56.6201 5.20215 56.6201 4.3916C 56.6201 3.58431 56.4443 2.96094 56.0928 2.52148C 55.7445 2.07878 55.2725 1.85742 54.6768 1.85742C 54.0811 1.85742 53.6058 2.07715 53.251 2.5166C 52.8962 2.95605 52.7188 3.58105 52.7188 4.3916C 52.7188 5.20215 52.8962 5.82715 53.251 6.2666C 53.6058 6.70605 54.0811 6.92578 54.6768 6.92578ZM 58.124 4.3916C 58.124 5.68392 57.7611 6.6735 57.0352 7.36035C 56.4915 7.92025 55.7054 8.2002 54.6768 8.2002C 53.6481 8.2002 52.862 7.92025 52.3184 7.36035C 51.5892 6.6735 51.2246 5.68392 51.2246 4.3916C 51.2246 3.07324 51.5892 2.08366 52.3184 1.42285C 52.862 0.862956 53.6481 0.583008 54.6768 0.583008C 55.7054 0.583008 56.4915 0.862956 57.0352 1.42285C 57.7611 2.08366 58.124 3.07324 58.124 4.3916ZM 62.46 6.92578C 63.0557 6.92578 63.5277 6.70605 63.876 6.2666C 64.2275 5.82715 64.4033 5.20215 64.4033 4.3916C 64.4033 3.58431 64.2275 2.96094 63.876 2.52148C 63.5277 2.07878 63.0557 1.85742 62.46 1.85742C 61.8643 1.85742 61.389 2.07715 61.0342 2.5166C 60.6794 2.95605 60.502 3.58105 60.502 4.3916C 60.502 5.20215 60.6794 5.82715 61.0342 6.2666C 61.389 6.70605 61.8643 6.92578 62.46 6.92578ZM 65.9072 4.3916C 65.9072 5.68392 65.5443 6.6735 64.8184 7.36035C 64.2747 7.92025 63.4886 8.2002 62.46 8.2002C 61.4313 8.2002 60.6452 7.92025 60.1016 7.36035C 59.3724 6.6735 59.0078 5.68392 59.0078 4.3916C 59.0078 3.07324 59.3724 2.08366 60.1016 1.42285C 60.6452 0.862956 61.4313 0.583008 62.46 0.583008C 63.4886 0.583008 64.2747 0.862956 64.8184 1.42285C 65.5443 2.08366 65.9072 3.07324 65.9072 4.3916ZM 67.0352 0.802734L 68.6123 0.802734L 71.4785 5.82715L 71.4785 0.802734L 72.8799 0.802734L 72.8799 8L 71.376 8L 68.4365 2.8877L 68.4365 8L 67.0352 8L 67.0352 0.802734ZM 74.623 0.827148L 76.1514 0.827148L 76.1514 2.65332L 75.7559 6.0127L 75.0283 6.0127L 74.623 2.65332L 74.623 0.827148ZM 74.6572 6.58887L 76.1123 6.58887L 76.1123 8L 74.6572 8L 74.6572 6.58887Z"/>
</defs>
</svg>
